<svg xmlns="http://www.w3.org/2000/svg" viewBox="0 0 320 230" fill="none">
  <!-- Background glow -->
  <circle cx="160" cy="115" r="105" fill="#FFF7ED" opacity="0.4"/>
  <!-- ===== BOOKS (left / center) ===== -->
  <!-- Book 1 – bottom (orange) -->
  <rect x="55"  y="170" width="138" height="24" rx="6" fill="#F97316"/>
  <rect x="55"  y="170" width="15"  height="24" rx="5" fill="#EA580C"/>
  <line x1="70"  y1="176" x2="185" y2="176" stroke="white" stroke-width="1.5" opacity="0.2"/>
  <line x1="70"  y1="184" x2="185" y2="184" stroke="white" stroke-width="1.5" opacity="0.2"/>
  <!-- Book 2 – middle (blue) -->
  <rect x="65"  y="144" width="122" height="24" rx="6" fill="#3B82F6"/>
  <rect x="65"  y="144" width="15"  height="24" rx="5" fill="#2563EB"/>
  <line x1="80"  y1="150" x2="179" y2="150" stroke="white" stroke-width="1.5" opacity="0.2"/>
  <line x1="80"  y1="158" x2="179" y2="158" stroke="white" stroke-width="1.5" opacity="0.2"/>
  <!-- Bookmark tab -->
  <rect x="173" y="144" width="5" height="10" rx="2" fill="#FCD34D"/>
  <!-- Book 3 – top (purple) -->
  <rect x="75"  y="118" width="106" height="24" rx="6" fill="#8B5CF6"/>
  <rect x="75"  y="118" width="15"  height="24" rx="5" fill="#7C3AED"/>
  <line x1="90"  y1="124" x2="173" y2="124" stroke="white" stroke-width="1.5" opacity="0.2"/>
  <line x1="90"  y1="132" x2="173" y2="132" stroke="white" stroke-width="1.5" opacity="0.2"/>
  <!-- Bookmark tab -->
  <rect x="164" y="118" width="5" height="8" rx="2" fill="#F97316"/>
  <!-- ===== LIGHTBULB (right) ===== -->
  <!-- Outer glow -->
  <circle cx="248" cy="88" r="52" fill="#FDE68A" opacity="0.25"/>
  <!-- Bulb glass -->
  <circle cx="248" cy="88" r="38" fill="#FDE68A"/>
  <!-- Rays -->
  <line x1="248" y1="38" x2="248" y2="26" stroke="#FCD34D" stroke-width="3.5" stroke-linecap="round"/>
  <line x1="276" y1="49" x2="287" y2="38" stroke="#FCD34D" stroke-width="3.5" stroke-linecap="round"/>
  <line x1="293" y1="75" x2="307" y2="70" stroke="#FCD34D" stroke-width="3.5" stroke-linecap="round"/>
  <line x1="290" y1="108" x2="303" y2="117" stroke="#FCD34D" stroke-width="3.5" stroke-linecap="round"/>
  <line x1="220" y1="49" x2="209" y2="38" stroke="#FCD34D" stroke-width="3.5" stroke-linecap="round"/>
  <line x1="203" y1="75" x2="189" y2="70" stroke="#FCD34D" stroke-width="3.5" stroke-linecap="round"/>
  <!-- Bulb base -->
  <rect x="237" y="124" width="22" height="15" rx="4" fill="#FCD34D"/>
  <rect x="239" y="139" width="18" height="10" rx="4" fill="#F59E0B"/>
  <rect x="241" y="149" width="14" height="7"  rx="3" fill="#D97706"/>
  <!-- Idea lightning inside bulb -->
  <path d="M242 80 L247 87 L238 89 L245 96 L240 103" stroke="#EA580C" stroke-width="2.5" stroke-linecap="round" stroke-linejoin="round"/>
  <!-- ===== DECORATIVE STARS ===== -->
  <path d="M126 72 L128.5 64 L131 72 L139 72 L133 76 L135.5 84 L128.5 80 L121.5 84 L124 76 L118 72 Z" fill="#FCD34D"/>
  <circle cx="98"  cy="100" r="4"   fill="#F97316"  opacity="0.35"/>
  <circle cx="210" cy="175" r="5"   fill="#8B5CF6"  opacity="0.3"/>
  <circle cx="48"  cy="148" r="3.5" fill="#3B82F6"  opacity="0.35"/>
  <circle cx="30"  cy="95"  r="2.5" fill="#FCD34D"  opacity="0.5"/>
</svg>
